<?xml version="1.0" encoding="iso-8859-1"?>
<!-- Generator: Adobe Illustrator 19.0.0, SVG Export Plug-In . SVG Version: 6.00 Build 0)  -->
<svg version="1.1" id="Capa_1" xmlns="http://www.w3.org/2000/svg" xmlns:xlink="http://www.w3.org/1999/xlink" x="0px" y="0px"
	 viewBox="0 0 480 480" style="enable-background:new 0 0 480 480;" xml:space="preserve">
<path style="fill:#FF1D25;" d="M432,151.976H8v176h48c0-17.673,14.327-32,32-32s32,14.327,32,32h32c0-17.673,14.327-32,32-32
	s32,14.327,32,32h144c0-17.673,14.327-32,32-32s32,14.327,32,32h48v-80L432,151.976z"/>
<g>
	<path style="fill:#808080;" d="M88,295.976L88,295.976c17.673,0,32,14.327,32,32l0,0c0,17.673-14.327,32-32,32l0,0
		c-17.673,0-32-14.327-32-32l0,0C56,310.303,70.327,295.976,88,295.976z"/>
	<path style="fill:#808080;" d="M184,295.976L184,295.976c17.673,0,32,14.327,32,32l0,0c0,17.673-14.327,32-32,32l0,0
		c-17.673,0-32-14.327-32-32l0,0C152,310.303,166.327,295.976,184,295.976z"/>
	<path style="fill:#808080;" d="M392,295.976L392,295.976c17.673,0,32,14.327,32,32l0,0c0,17.673-14.327,32-32,32l0,0
		c-17.673,0-32-14.327-32-32l0,0C360,310.303,374.327,295.976,392,295.976z"/>
</g>
<path style="fill:#763A02;" d="M56,151.976l32-32h128l32,32H56z"/>
<path style="fill:#B9DEE4;" d="M360,151.976v80l112,16l-40-96H360z"/>
<path style="fill:#36717A;" d="M40,151.976h80v80H40V151.976z"/>
<path style="fill:#6CBBC7;" d="M120,151.976h80v80h-80V151.976z"/>
<path style="fill:#89C9D2;" d="M200,151.976h80v80h-80V151.976z"/>
<path style="fill:#A7D6DD;" d="M280,151.976h80v80h-80V151.976z"/>
<path style="fill:#FDB62F;" d="M8,263.976h32v32H8V263.976z"/>
<circle cx="88" cy="327.976" r="8"/>
<circle cx="184" cy="327.976" r="8"/>
<circle cx="392" cy="327.976" r="8"/>
<path d="M480,175.976v-24c0-4.418-3.582-8-8-8H251.312l-32-32H84.688l-32,32H8c-4.418,0-8,3.582-8,8v176c0,4.418,3.582,8,8,8h40.8
	c4.396,21.65,25.51,35.636,47.16,31.24c15.741-3.196,28.044-15.499,31.24-31.24h17.6c4.396,21.65,25.51,35.636,47.16,31.24
	c15.741-3.196,28.044-15.499,31.24-31.24h129.6c4.396,21.65,25.51,35.636,47.16,31.24c15.741-3.196,28.044-15.499,31.24-31.24H472
	c4.418,0,8-3.582,8-8v-80c0-0.112-0.064-0.224-0.064-0.336c-0.019-0.94-0.206-1.87-0.552-2.744L444,159.976h20v16L480,175.976z
	 M459.2,238.064L368,225.04v-65.064h58.664L459.2,238.064z M352,223.976h-64v-64h64V223.976z M272,159.976v64h-64v-64H272z
	 M192,223.976h-64v-64h64V223.976z M112,223.976H48v-64h64V223.976z M91.312,127.976h121.376l16,16H75.312L91.312,127.976z
	 M16,271.976h16v16H16V271.976z M88,351.976c-13.255,0-24-10.745-24-24s10.745-24,24-24s24,10.745,24,24S101.255,351.976,88,351.976
	z M184,351.976c-13.255,0-24-10.745-24-24s10.745-24,24-24s24,10.745,24,24S197.255,351.976,184,351.976z M392,351.976
	c-13.255,0-24-10.745-24-24s10.745-24,24-24s24,10.745,24,24S405.255,351.976,392,351.976z M464,303.976v16h-32.8
	c0-0.144-0.096-0.28-0.128-0.424c-0.494-2.275-1.187-4.502-2.072-6.656c-0.312-0.8-0.736-1.472-1.096-2.216
	c-0.68-1.48-1.449-2.918-2.304-4.304c-0.512-0.8-1.096-1.528-1.664-2.28c-0.88-1.196-1.825-2.341-2.832-3.432
	c-0.672-0.712-1.368-1.376-2.088-2.04c-1.074-0.989-2.201-1.918-3.376-2.784c-0.8-0.584-1.6-1.144-2.4-1.664
	c-1.291-0.793-2.627-1.512-4-2.152c-0.848-0.408-1.672-0.84-2.552-1.192c-1.567-0.594-3.17-1.089-4.8-1.48
	c-0.8-0.208-1.544-0.48-2.36-0.64c-5.015-1.025-10.185-1.025-15.2,0c-0.8,0.16-1.6,0.432-2.36,0.64
	c-1.63,0.391-3.233,0.886-4.8,1.48c-0.88,0.352-1.704,0.8-2.552,1.192c-1.373,0.64-2.709,1.359-4,2.152
	c-0.8,0.52-1.6,1.088-2.4,1.664c-1.175,0.866-2.302,1.795-3.376,2.784c-0.72,0.664-1.416,1.328-2.088,2.04
	c-1.007,1.091-1.952,2.236-2.832,3.432c-0.568,0.752-1.152,1.488-1.664,2.28c-0.853,1.368-1.622,2.787-2.304,4.248
	c-0.36,0.744-0.8,1.448-1.096,2.216c-0.885,2.154-1.578,4.381-2.072,6.656c0,0.144-0.096,0.28-0.128,0.424H223.2
	c0-0.144-0.096-0.28-0.128-0.424c-0.494-2.275-1.187-4.502-2.072-6.656c-0.312-0.8-0.736-1.472-1.096-2.216
	c-0.682-1.461-1.451-2.88-2.304-4.248c-0.512-0.8-1.096-1.528-1.664-2.28c-0.88-1.196-1.825-2.341-2.832-3.432
	c-0.672-0.712-1.368-1.376-2.088-2.04c-1.074-0.989-2.201-1.918-3.376-2.784c-0.8-0.584-1.6-1.144-2.4-1.664
	c-1.291-0.793-2.627-1.512-4-2.152c-0.848-0.408-1.672-0.84-2.552-1.192c-1.567-0.594-3.17-1.089-4.8-1.48
	c-0.8-0.208-1.544-0.48-2.36-0.64c-5.015-1.025-10.185-1.025-15.2,0c-0.8,0.16-1.6,0.432-2.36,0.64
	c-1.63,0.391-3.233,0.886-4.8,1.48c-0.88,0.352-1.704,0.8-2.552,1.192c-1.373,0.64-2.709,1.359-4,2.152
	c-0.8,0.52-1.6,1.088-2.4,1.664c-1.175,0.866-2.302,1.795-3.376,2.784c-0.72,0.664-1.416,1.328-2.088,2.04
	c-1.007,1.091-1.952,2.236-2.832,3.432c-0.568,0.752-1.152,1.488-1.664,2.28c-0.853,1.368-1.622,2.787-2.304,4.248
	c-0.36,0.744-0.8,1.448-1.096,2.216c-0.885,2.154-1.578,4.381-2.072,6.656c0,0.144-0.096,0.28-0.128,0.424H127.2
	c0-0.144-0.096-0.28-0.128-0.424c-0.494-2.275-1.187-4.502-2.072-6.656c-0.312-0.8-0.736-1.472-1.096-2.216
	c-0.682-1.461-1.451-2.88-2.304-4.248c-0.512-0.8-1.096-1.528-1.664-2.28c-0.88-1.196-1.825-2.341-2.832-3.432
	c-0.672-0.712-1.368-1.376-2.088-2.04c-1.074-0.989-2.201-1.918-3.376-2.784c-0.8-0.584-1.6-1.144-2.4-1.664
	c-1.291-0.793-2.627-1.512-4-2.152c-0.848-0.408-1.672-0.84-2.552-1.192c-1.567-0.594-3.17-1.089-4.8-1.48
	c-0.8-0.208-1.544-0.48-2.36-0.64c-5.015-1.025-10.185-1.025-15.2,0c-0.8,0.16-1.6,0.432-2.36,0.64
	c-1.63,0.391-3.233,0.886-4.8,1.48c-0.88,0.352-1.704,0.8-2.552,1.192c-1.373,0.64-2.709,1.359-4,2.152
	c-0.8,0.52-1.6,1.088-2.4,1.664c-1.175,0.866-2.302,1.795-3.376,2.784c-0.72,0.664-1.416,1.328-2.088,2.04
	c-1.007,1.091-1.952,2.236-2.832,3.432c-0.568,0.752-1.152,1.488-1.664,2.28c-0.853,1.368-1.622,2.787-2.304,4.248
	c-0.36,0.744-0.8,1.448-1.096,2.216c-0.885,2.154-1.578,4.381-2.072,6.656c0,0.144-0.096,0.28-0.128,0.424H16v-15.944h24
	c4.418,0,8-3.582,8-8v-32c0-4.418-3.582-8-8-8H16v-96h16v72c0,4.418,3.582,8,8,8h319.44L464,254.912v33.064h-16v16H464z"/>
<path d="M240,287.976h32v16h-32V287.976z"/>
<path d="M304,287.976h32v16h-32V287.976z"/>
<g>
</g>
<g>
</g>
<g>
</g>
<g>
</g>
<g>
</g>
<g>
</g>
<g>
</g>
<g>
</g>
<g>
</g>
<g>
</g>
<g>
</g>
<g>
</g>
<g>
</g>
<g>
</g>
<g>
</g>
</svg>
