<?xml version="1.0" encoding="iso-8859-1"?>
<!-- Generator: Adobe Illustrator 19.0.0, SVG Export Plug-In . SVG Version: 6.00 Build 0)  -->
<svg version="1.1" id="Capa_1" xmlns="http://www.w3.org/2000/svg" xmlns:xlink="http://www.w3.org/1999/xlink" x="0px" y="0px"
	 viewBox="0 0 511.998 511.998" style="enable-background:new 0 0 511.998 511.998;" xml:space="preserve">
<circle style="fill:#E6EAF0;" cx="402.44" cy="331.319" r="94.5"/>
<circle style="fill:#C6DAEE;" cx="402.44" cy="331.319" r="94.5"/>
<circle style="fill:#E6EAF0;" cx="109.56" cy="331.319" r="94.5"/>
<path style="fill:#005357;" d="M109.677,440.886c-1.635,0-3.271-0.036-4.915-0.107C44.409,438.132-2.539,386.878,0.107,326.525
	c1.282-29.236,13.873-56.224,35.452-75.99s49.563-29.953,78.802-28.664c29.236,1.282,56.224,13.872,75.99,35.452
	c19.767,21.58,29.947,49.565,28.664,78.802c-1.282,29.236-13.872,56.224-35.452,75.99
	C163.197,430.769,137.121,440.886,109.677,440.886z M109.478,251.892c-19.899,0-38.801,7.334-53.568,20.86
	c-15.645,14.331-24.773,33.897-25.703,55.093c-1.918,43.756,32.119,80.915,75.875,82.834c21.191,0.921,41.486-6.451,57.131-20.782
	c15.645-14.331,24.773-33.897,25.703-55.093c1.919-43.756-32.119-80.915-75.875-82.834
	C111.85,251.918,110.661,251.892,109.478,251.892z"/>
<polygon style="fill:#C6DAEE;" points="367.763,190.831 337.634,190.831 337.634,126.279 398.795,126.279 398.795,156.408 
	367.763,156.408 "/>
<polygon style="fill:#A5C7E0;" points="367.763,190.831 337.634,190.831 337.634,126.279 398.795,126.279 398.795,156.408 
	367.763,156.408 "/>
<path style="fill:#005357;" d="M402.496,440.885c-1.614,0-3.231-0.035-4.859-0.106c-60.353-2.647-107.301-53.901-104.654-114.254
	c1.282-29.236,13.872-56.224,35.452-75.99c21.578-19.766,49.546-29.949,78.801-28.664c29.236,1.282,56.224,13.872,75.991,35.452
	c19.767,21.58,29.946,49.565,28.664,78.802C509.318,394.849,460.716,440.885,402.496,440.885z M402.354,251.892
	c-19.898,0-38.801,7.334-53.568,20.86c-15.646,14.331-24.774,33.897-25.704,55.093c-1.918,43.756,32.119,80.915,75.875,82.834
	c1.178,0.051,2.354,0.077,3.522,0.077c42.214,0.002,77.446-33.374,79.313-75.952c0.929-21.197-6.451-41.486-20.782-57.131
	c-14.331-15.645-33.897-24.773-55.094-25.703C404.727,251.918,403.538,251.892,402.354,251.892z"/>
<path style="fill:#004244;" d="M402.496,440.885c-1.614,0-3.231-0.035-4.859-0.106c-60.353-2.647-107.301-53.901-104.654-114.254
	c1.282-29.236,13.872-56.224,35.452-75.99c21.578-19.766,49.546-29.949,78.801-28.664c29.236,1.282,56.224,13.872,75.991,35.452
	c19.767,21.58,29.946,49.565,28.664,78.802C509.318,394.849,460.716,440.885,402.496,440.885z M402.354,251.892
	c-19.898,0-38.801,7.334-53.568,20.86c-15.646,14.331-24.774,33.897-25.704,55.093c-1.918,43.756,32.119,80.915,75.875,82.834
	c1.178,0.051,2.354,0.077,3.522,0.077c42.214,0.002,77.446-33.374,79.313-75.952c0.929-21.197-6.451-41.486-20.782-57.131
	c-14.331-15.645-33.897-24.773-55.094-25.703C404.727,251.918,403.538,251.892,402.354,251.892z"/>
<path style="fill:#F3953E;" d="M367.763,188.746v-32.338h-30.129v19.36H174.843V71.112H96.955c-23.183,0-42.133,18.86-42.243,42.042
	c-0.109,22.933,18.438,41.956,41.359,42.435l22.842,0.637l0.841-30.117l-22.905-0.639l-0.128-0.003
	c-6.582-0.128-11.911-5.587-11.879-12.17c0.031-6.648,5.466-12.057,12.114-12.057h47.76v86.98L95.375,326.254l28.371,10.141
	L166.23,217.54l137.343,128.849h108.731L367.763,188.746z M197.854,205.896h143.447l31.183,110.364h-56.99L197.854,205.896z"/>
<polygon style="fill:#EC6C32;" points="412.305,346.388 367.763,188.746 367.763,156.408 337.634,156.408 337.634,175.767 
	255.999,175.767 255.999,205.896 341.301,205.896 372.484,316.26 315.494,316.26 255.999,260.445 255.999,301.757 303.574,346.388 
	"/>
<g>
</g>
<g>
</g>
<g>
</g>
<g>
</g>
<g>
</g>
<g>
</g>
<g>
</g>
<g>
</g>
<g>
</g>
<g>
</g>
<g>
</g>
<g>
</g>
<g>
</g>
<g>
</g>
<g>
</g>
</svg>
