<?xml version="1.0" encoding="iso-8859-1"?>
<!-- Generator: Adobe Illustrator 19.0.0, SVG Export Plug-In . SVG Version: 6.00 Build 0)  -->
<svg version="1.1" id="Capa_1" xmlns="http://www.w3.org/2000/svg" xmlns:xlink="http://www.w3.org/1999/xlink" x="0px" y="0px"
	 viewBox="0 0 512 512" style="enable-background:new 0 0 512 512;" xml:space="preserve">
<path style="fill:#82B1FF;" d="M412.411,222.069l-23.67,63.373l-71.86,10.979v35.93h187.634V202.604h-64.056
	C427.964,202.604,416.782,210.364,412.411,222.069z"/>
<path style="fill:#448AFF;" d="M433.653,292.429c-31.077,0-58.517,15.866-74.65,39.922h145.512v-5.234
	C488.063,306.021,462.417,292.429,433.653,292.429z"/>
<g>
	<circle style="fill:#D8D7DA;" cx="433.653" cy="382.253" r="69.864"/>
	<circle style="fill:#D8D7DA;" cx="77.349" cy="382.253" r="69.864"/>
</g>
<path style="fill:#FF5352;" d="M504.515,113.778h-79.536c-35.189,0-66.876-21.305-80.152-53.895l0,0h159.688V113.778z"/>
<path style="fill:#F23030;" d="M357.836,59.883h-13.01l0,0c13.277,32.588,44.963,53.895,80.152,53.895h79.536V91.821h-79.536
	C398.494,91.821,373.997,79.748,357.836,59.883z"/>
<path d="M512,121.263V52.398H333.694l4.2,10.31c10.545,25.883,31.521,45.09,56.96,53.639l-0.993,0.435l35.127,80.161
	c-10.679,3.471-19.537,11.66-23.586,22.504l-22.137,59.259l-73.87,11.286v49.844h59.624c-6.556,9.957-10.878,21.504-12.24,33.934
	h-39.122L237.48,265.58l4.514-19.561h25.982v-14.971h-69.864v14.971h28.516l-3.685,15.969H82.919
	c-5.67-13.472-19.004-22.955-34.514-22.955H36.861c3.343-13.178,15.306-22.955,29.509-22.955h33.934v-14.971H66.37
	c-25.04,0-45.411,20.371-45.411,45.411v7.485h27.446c12.383,0,22.456,10.074,22.456,22.456v28.737
	C31.238,308.505,0,341.79,0,382.253c0,42.65,34.698,77.349,77.349,77.349s77.349-34.699,77.349-77.349
	c0-39.782-30.193-72.634-68.866-76.874v-28.421h33.8l75.502,111.782h161.463c3.309,39.624,36.593,70.862,77.056,70.862
	c42.651,0,77.349-34.699,77.349-77.349c0-15.654-4.689-30.228-12.715-42.417H512V195.119h-25.481l13.277-73.856H512z
	 M356.846,67.368h140.183v38.924H424.98C396.565,106.292,370.903,91.334,356.846,67.368z M424.98,121.263h26.139v73.856h-6.585
	l-32.772-74.787C416.095,120.939,420.507,121.263,424.98,121.263z M299.023,373.77h-86.51l20.542-89.016L299.023,373.77z
	 M139.727,382.253c0,34.396-27.983,62.378-62.378,62.378s-62.378-27.982-62.378-62.378c0-32.205,24.533-58.785,55.891-62.041v31.244
	h14.971v-30.989C116.227,324.621,139.727,350.736,139.727,382.253z M137.699,276.959h81.791l-20.828,90.257L137.699,276.959z
	 M433.653,444.632c-32.205,0-58.785-24.533-62.041-55.891h39.516V373.77h-39.261c4.154-30.395,30.27-53.895,61.786-53.895
	c34.395,0,62.378,27.982,62.378,62.378S468.048,444.632,433.653,444.632z M497.029,324.866h-11.576
	c-13.722-12.398-31.893-19.961-51.8-19.961s-38.078,7.563-51.8,19.961h-57.487V302.85l69.849-10.671l25.212-67.494
	c3.26-8.729,11.711-14.594,21.032-14.594h56.571V324.866z M471.307,195.119h-5.218v-73.856h18.495L471.307,195.119z"/>
<rect x="70.862" y="366.424" width="14.971" height="14.827"/>
<rect x="426.098" y="373.77" width="14.54" height="14.971"/>
<g>
	<path style="fill:#FFFFFF;" d="M482.058,291.431h-14.971v-14.153h14.971V291.431z M482.058,262.307h-14.971v-22.275h-26.629V225.06
		h41.6V262.307z"/>
	<rect x="446.628" y="79.345" style="fill:#FFFFFF;" width="34.932" height="14.971"/>
	<path style="fill:#FFFFFF;" d="M433.653,429.661c-16.495,0-31.557-8.391-40.292-22.445l12.715-7.903
		c5.984,9.628,16.293,15.377,27.576,15.377v14.971H433.653z"/>
	<path style="fill:#FFFFFF;" d="M481.06,382.253H466.09c0-17.886-14.552-32.437-32.437-32.437v-14.971
		C459.793,334.846,481.06,356.113,481.06,382.253z"/>
	<path style="fill:#FFFFFF;" d="M124.756,382.253h-14.971c0-9.77-4.362-18.934-11.968-25.141l9.466-11.598
		C118.388,354.576,124.756,367.968,124.756,382.253z"/>
	<path style="fill:#FFFFFF;" d="M77.341,429.661c-5.894,0-11.653-1.076-17.117-3.199l5.421-13.955
		c3.729,1.448,7.664,2.184,11.696,2.184c0.002,0,0.004,0,0.006,0l0.003,14.971C77.348,429.661,77.344,429.661,77.341,429.661z
		 M45.24,417.107c-4.391-4.049-7.938-8.815-10.542-14.165l13.461-6.551c1.785,3.666,4.217,6.932,7.229,9.71L45.24,417.107z
		 M30.078,385.865c-0.091-1.197-0.137-2.412-0.137-3.612c0-13.583,5.861-26.544,16.078-35.556l9.903,11.228
		c-6.996,6.171-11.009,15.038-11.009,24.327c0,0.825,0.032,1.661,0.094,2.485L30.078,385.865z"/>
</g>
<g>
</g>
<g>
</g>
<g>
</g>
<g>
</g>
<g>
</g>
<g>
</g>
<g>
</g>
<g>
</g>
<g>
</g>
<g>
</g>
<g>
</g>
<g>
</g>
<g>
</g>
<g>
</g>
<g>
</g>
</svg>
