<?xml version="1.0" encoding="iso-8859-1"?>
<!-- Generator: Adobe Illustrator 19.0.0, SVG Export Plug-In . SVG Version: 6.00 Build 0)  -->
<svg version="1.1" id="Capa_1" xmlns="http://www.w3.org/2000/svg" xmlns:xlink="http://www.w3.org/1999/xlink" x="0px" y="0px"
	 viewBox="0 0 478.4 478.4" style="enable-background:new 0 0 478.4 478.4;" xml:space="preserve">
<path style="fill:#A9BFD1;" d="M390.4,199.201h16v-144c0-4.418-3.582-8-8-8h-24v16h16V199.201z"/>
<path style="fill:#5A6570;" d="M46.4,335.201h176v-144l-26.4-112H46.4L46.4,335.201z"/>
<circle style="fill:#394D5D;" cx="102.4" cy="335.201" r="88"/>
<circle style="fill:#FFD884;" cx="102.4" cy="335.201" r="40"/>
<path style="fill:#FFBF41;" d="M46.4,79.201H196l7.544,32H46.4L46.4,79.201z"/>
<path style="fill:#D1E3EE;" d="M414.4,159.201h-32v-64h32V159.201z"/>
<g>
	<path style="fill:#5A6570;" d="M111.744,275.641l-18.632-27.944c6.418-0.697,12.895-0.659,19.304,0.112l12.64,18.952
		L111.744,275.641z"/>
	<path style="fill:#5A6570;" d="M151.128,299.697l6.576-32.904c5.021,4.065,9.582,8.669,13.6,13.728l-4.456,22.312L151.128,299.697z
		"/>
	<path style="fill:#5A6570;" d="M161.96,344.545l27.944-18.624c0.327,3.083,0.493,6.18,0.496,9.28
		c-0.016,3.35-0.219,6.697-0.608,10.024l-18.96,12.632L161.96,344.545z"/>
	<path style="fill:#5A6570;" d="M137.912,383.929l32.896,6.576c-4.065,5.021-8.669,9.582-13.728,13.6l-22.304-4.456L137.912,383.929
		z"/>
	<path style="fill:#5A6570;" d="M93.056,394.761l18.624,27.944c-3.083,0.327-6.18,0.493-9.28,0.496
		c-3.35-0.016-6.697-0.219-10.024-0.608l-12.632-18.952L93.056,394.761z"/>
	<path style="fill:#5A6570;" d="M53.672,370.705l-6.576,32.904c-5.019-4.068-9.58-8.671-13.6-13.728l4.464-22.312L53.672,370.705z"
		/>
	<path style="fill:#5A6570;" d="M42.832,325.857l-27.936,18.624c-0.697-6.418-0.659-12.895,0.112-19.304l18.952-12.632
		L42.832,325.857z"/>
	<path style="fill:#5A6570;" d="M66.888,286.473l-32.896-6.576c4.065-5.021,8.669-9.582,13.728-13.6l22.312,4.456L66.888,286.473z"
		/>
</g>
<path style="fill:#D3D0C7;" d="M118.4,215.201h-32l0,0v-48c0-8.837,7.163-16,16-16s16,7.163,16,16L118.4,215.201
	C118.4,215.201,118.4,215.201,118.4,215.201z"/>
<path style="fill:#394D5D;" d="M152.744,201.545l32-32l11.312,11.312l-10.344,10.344l52.688,52.688l-11.312,11.312L174.4,202.513
	l-10.344,10.344L152.744,201.545z"/>
<path style="fill:#FFBF41;" d="M222.4,191.201h248v144h-248V191.201z"/>
<circle style="fill:#394D5D;" cx="366.4" cy="351.201" r="72"/>
<circle style="fill:#FFD884;" cx="366.4" cy="351.201" r="24"/>
<path style="fill:#D1E3EE;" d="M414.4,223.201h-16c-8.837,0-16,7.163-16,16c0,8.837,7.163,16,16,16h16V223.201z"/>
<g>
	<path style="fill:#394D5D;" d="M438.4,247.201h32v16h-32V247.201z"/>
	<path style="fill:#394D5D;" d="M438.4,279.201h32v16h-32V279.201z"/>
	<path style="fill:#394D5D;" d="M438.4,215.201h32v16h-32V215.201z"/>
</g>
<g>
	<path style="fill:#5A6570;" d="M366.816,305.729l-8.672-26.016c2.74-0.329,5.496-0.5,8.256-0.512
		c2.881,0.016,5.758,0.203,8.616,0.56l6.968,20.912L366.816,305.729z"/>
	<path style="fill:#5A6570;" d="M398.84,319.345l12.256-24.528c4.423,3.522,8.418,7.549,11.904,12l-9.84,19.696L398.84,319.345z"/>
	<path style="fill:#5A6570;" d="M411.864,351.617l26.024-8.672c0.329,2.74,0.5,5.496,0.512,8.256
		c-0.015,2.881-0.205,5.758-0.568,8.616l-20.904,6.968L411.864,351.617z"/>
	<path style="fill:#5A6570;" d="M398.256,383.649l24.52,12.256c-3.523,4.421-7.551,8.416-12,11.904l-19.696-9.848L398.256,383.649z"
		/>
	<path style="fill:#5A6570;" d="M365.984,396.673l8.672,26.016c-2.74,0.328-5.496,0.499-8.256,0.512
		c-2.883-0.016-5.763-0.203-8.624-0.56l-6.96-20.912L365.984,396.673z"/>
	<path style="fill:#5A6570;" d="M333.952,383.057l-12.256,24.528c-4.421-3.524-8.416-7.551-11.904-12l9.848-19.696L333.952,383.057z
		"/>
	<path style="fill:#5A6570;" d="M320.928,350.785l-26.024,8.672c-0.322-2.74-0.49-5.497-0.504-8.256
		c0.016-2.881,0.203-5.758,0.56-8.616l20.904-6.968L320.928,350.785z"/>
	<path style="fill:#5A6570;" d="M334.536,318.753l-24.52-12.248c3.519-4.425,7.547-8.421,12-11.904l19.704,9.84L334.536,318.753z"/>
</g>
<g>
	<path style="fill:#FFD884;" d="M222.4,215.201h128v16h-128V215.201z"/>
	<path style="fill:#FFD884;" d="M214.4,335.201h16c0-70.692-57.308-128-128-128c-40.289,0-78.227,18.969-102.4,51.2l12.8,9.6
		c37.114-49.485,107.315-59.514,156.8-22.4C197.802,266.752,214.4,299.948,214.4,335.201L214.4,335.201z"/>
</g>
<path d="M478.4,335.201v-144c0-4.418-3.582-8-8-8h-64v-16h8c4.418,0,8-3.582,8-8v-64c0-4.418-3.582-8-8-8h-8v-32
	c0-4.418-3.582-8-8-8h-24v16h16v24h-8c-4.418,0-8,3.582-8,8v64c0,4.418,3.582,8,8,8h8v16H228.736L203.792,77.369
	c-0.851-3.616-4.078-6.17-7.792-6.168H46.4c-4.418,0-8,3.582-8,8v145.256C23.445,233.07,10.384,244.616,0,258.401l12.8,9.6
	c7.179-9.509,15.819-17.82,25.6-24.624v20.48c-39.45,35.35-42.773,95.987-7.423,135.437s95.987,42.773,135.437,7.423
	c18.256-16.359,29.555-39.086,31.578-63.515h88.8c-4.413,43.962,27.648,83.177,71.61,87.59s83.177-27.648,87.59-71.61
	c0.533-5.313,0.533-10.667,0-15.98H470.4C474.818,343.201,478.4,339.619,478.4,335.201L478.4,335.201z M406.4,151.201h-16v-48h16
	V151.201z M415.448,392.233l-17.192-8.592l-7.152,14.312l11.672,5.84c-9.093,6.32-19.68,10.154-30.712,11.12l-6.08-18.24
	l-15.2,5.056l4.128,12.384c-10.905-1.967-21.108-6.745-29.6-13.864l8.592-17.184l-14.312-7.16l-5.832,11.672
	c-6.319-9.091-10.152-19.675-11.12-30.704l18.24-6.08l-5.064-15.2l-12.384,4.128c1.973-10.903,6.751-21.105,13.864-29.6
	l17.192,8.592l7.2-14.312l-11.68-5.84c9.094-6.318,19.681-10.151,30.712-11.12l6.088,18.24l15.2-5.056l-4.128-12.384
	c10.905,1.968,21.107,6.747,29.6,13.864l-8.6,17.184l14.32,7.16l5.832-11.672c6.319,9.091,10.152,19.675,11.12,30.704l-18.248,6.08
	l5.064,15.2l12.384-4.128C427.371,373.541,422.579,383.743,415.448,392.233L415.448,392.233z M43.08,281.713l23.808,4.76
	l3.144-15.688L58.4,268.457c11.881-7.839,25.648-12.345,39.864-13.048l13.488,20.232l13.312-8.88l-6.664-9.96
	c13.969,2.889,26.906,9.472,37.464,19.064l-4.8,23.808l15.688,3.144l2.32-11.632c7.842,11.877,12.351,25.641,13.056,39.856
	l-20.232,13.488l8.872,13.312l10.032-6.64c-2.892,13.967-9.475,26.904-19.064,37.464l-23.808-4.76l-3.136,15.688l11.624,2.32
	c-11.875,7.846-25.641,12.355-39.856,13.056l-13.488-20.232l-13.312,8.88l6.64,9.984c-13.969-2.887-26.907-9.471-37.464-19.064
	l4.76-23.808l-15.688-3.144l-2.352,11.616c-7.84-11.877-12.346-25.642-13.048-39.856l20.224-13.488l-8.872-13.312L24,319.201
	C26.889,305.222,33.479,292.275,43.08,281.713z M54.4,234.017c55.817-26.504,122.551-2.742,149.055,53.075
	c5.981,12.596,9.555,26.2,10.537,40.109h-16c-4.283-52.709-50.483-91.966-103.192-87.683c-14.244,1.157-28.048,5.488-40.4,12.675
	L54.4,234.017z M94.4,207.201v-40c0-4.418,3.582-8,8-8s8,3.582,8,8v40H94.4z M54.4,216.617v-97.416h142.808l17.192,72.928v27.76
	l-28.688-28.688l10.344-10.344l-11.312-11.312l-32,32l11.312,11.312l10.344-10.344l40,40v30.856
	c-18.426-33.266-50.657-56.645-88-63.832v-42.336c0-13.255-10.745-24-24-24s-24,10.745-24,24v42.4
	C70.188,211.142,62.149,213.492,54.4,216.617L54.4,216.617z M189.664,87.201l3.768,16H54.4v-16H189.664z M462.4,199.201v16h-24v16
	h24v16h-24v16h24v16h-24v16h24v32h-19.688c-13.26-42.146-58.176-65.562-100.322-52.302c-24.931,7.844-44.458,27.371-52.302,52.302
	H230.4v-96h120v-16h-120v-16H462.4z"/>
<path d="M54.4,335.201c0,26.51,21.49,48,48,48s48-21.49,48-48s-21.49-48-48-48C75.901,287.227,54.426,308.702,54.4,335.201z
	 M70.4,335.201c0-17.673,14.327-32,32-32s32,14.327,32,32s-14.327,32-32,32S70.4,352.874,70.4,335.201z"/>
<path d="M398.4,351.201c0-17.673-14.327-32-32-32s-32,14.327-32,32s14.327,32,32,32S398.4,368.874,398.4,351.201z M382.4,351.201
	c0,8.837-7.163,16-16,16s-16-7.163-16-16s7.163-16,16-16S382.4,342.364,382.4,351.201z"/>
<path d="M422.4,255.201v-32c0-4.418-3.582-8-8-8h-16c-13.255,0-24,10.745-24,24c0,13.255,10.745,24,24,24h16
	C418.818,263.201,422.4,259.619,422.4,255.201z M406.4,247.201h-8c-4.418,0-8-3.582-8-8s3.582-8,8-8h8V247.201z"/>
<g>
</g>
<g>
</g>
<g>
</g>
<g>
</g>
<g>
</g>
<g>
</g>
<g>
</g>
<g>
</g>
<g>
</g>
<g>
</g>
<g>
</g>
<g>
</g>
<g>
</g>
<g>
</g>
<g>
</g>
</svg>
