<?xml version="1.0" encoding="iso-8859-1"?>
<!-- Generator: Adobe Illustrator 19.0.0, SVG Export Plug-In . SVG Version: 6.00 Build 0)  -->
<svg version="1.1" id="Capa_1" xmlns="http://www.w3.org/2000/svg" xmlns:xlink="http://www.w3.org/1999/xlink" x="0px" y="0px"
	 viewBox="0 0 480 480" style="enable-background:new 0 0 480 480;" xml:space="preserve">
<path style="fill:#B3B3B3;" d="M384,167.949c-17.673,0-32-14.327-32-32h16c0,8.837,7.163,16,16,16s16-7.163,16-16s-7.163-16-16-16
	c-4.418,0-8-3.582-8-8v-56h16v49.016c17.112,4.418,27.403,21.871,22.984,38.983C411.337,158.078,398.592,167.95,384,167.949z"/>
<path style="fill:#FFA900;" d="M328,319.949h40c30.928,0,56,25.072,56,56h48v-96l-48-88h-96V319.949z"/>
<path style="fill:#763A02;" d="M96,247.949l288-192l-16-24l-304,184L96,247.949z"/>
<path style="fill:#FDB62F;" d="M56,375.949H8v-56h360c30.928,0,56,25.072,56,56H56z"/>
<path style="fill:#6CBBC7;" d="M360,191.949v96h112v-8l-48-88H360z"/>
<path style="fill:#763A02;" d="M80,287.949h176v32H80V287.949z"/>
<path style="fill:#FDB62F;" d="M192,183.949v104h96v-64l-40-40H192z"/>
<path style="fill:#6CBBC7;" d="M224,183.949v72h64v-32l-40-40H224z"/>
<path style="fill:#592C02;" d="M64,215.949h128v72H64V215.949z"/>
<g>
	<path style="fill:#808080;" d="M104,351.949L104,351.949c26.51,0,48,21.49,48,48l0,0c0,26.51-21.49,48-48,48l0,0
		c-26.51,0-48-21.49-48-48l0,0C56,373.44,77.49,351.949,104,351.949z"/>
	<path style="fill:#808080;" d="M376,351.949L376,351.949c26.51,0,48,21.49,48,48l0,0c0,26.51-21.49,48-48,48l0,0
		c-26.51,0-48-21.49-48-48l0,0C328,373.44,349.49,351.949,376,351.949z"/>
</g>
<g>
	<path style="fill:#B3B3B3;" d="M104,383.949L104,383.949c8.837,0,16,7.163,16,16l0,0c0,8.837-7.163,16-16,16l0,0
		c-8.837,0-16-7.163-16-16l0,0C88,391.113,95.163,383.949,104,383.949z"/>
	<path style="fill:#B3B3B3;" d="M376,383.949L376,383.949c8.837,0,16,7.163,16,16l0,0c0,8.837-7.163,16-16,16l0,0
		c-8.837,0-16-7.163-16-16l0,0C360,391.113,367.163,383.949,376,383.949z"/>
</g>
<path d="M104,375.949c-13.255,0-24,10.745-24,24s10.745,24,24,24s24-10.745,24-24S117.255,375.949,104,375.949z M104,407.949
	c-4.418,0-8-3.582-8-8s3.582-8,8-8s8,3.582,8,8S108.418,407.949,104,407.949z"/>
<path d="M376,375.949c-13.255,0-24,10.745-24,24s10.745,24,24,24s24-10.745,24-24S389.255,375.949,376,375.949z M376,407.949
	c-4.418,0-8-3.582-8-8s3.582-8,8-8s8,3.582,8,8S380.418,407.949,376,407.949z"/>
<path d="M479.024,276.117l-48-88c-1.402-2.57-4.096-4.169-7.024-4.168h-96c-4.418,0-8,3.582-8,8v120h-56v-16h24c4.418,0,8-3.582,8-8
	v-64c0-2.122-0.844-4.156-2.344-5.656l-40-40c-1.5-1.5-3.534-2.344-5.656-2.344h-29.6L376,70.893v41.056c0,4.418,3.582,8,8,8
	c8.837,0,16,7.163,16,16s-7.163,16-16,16s-16-7.163-16-16h-16c0,17.673,14.327,32,32,32s32-14.327,32-32
	c0-14.592-9.871-27.336-24-30.984V55.949h-0.144c0.058-1.566-0.357-3.114-1.192-4.44l-16-24c-2.378-3.562-7.138-4.619-10.8-2.4
	l-304,184c-2.383,1.453-3.828,4.049-3.808,6.84H56v72c0,4.418,3.582,8,8,8h8v16H8c-4.418,0-8,3.582-8,8v56c0,4.418,3.582,8,8,8
	h42.36c-8.884,29.625,7.93,60.842,37.554,69.726c29.625,8.884,60.842-7.93,69.726-37.554c3.147-10.493,3.147-21.678,0-32.171h164.72
	c-8.884,29.625,7.93,60.842,37.554,69.726c29.625,8.884,60.842-7.93,69.726-37.554c3.147-10.493,3.147-21.678,0-32.171H472
	c4.418,0,8-3.582,8-8v-96C480,278.611,479.665,277.293,479.024,276.117z M419.248,199.949l43.64,80H368v-80H419.248z M256,279.949
	h-56v-88h16v64c0,4.418,3.582,8,8,8h56v16H256z M80,279.949h-8v-56h112v56H80z M244.688,191.949L280,227.261v20.688h-48v-56H244.688
	z M184,207.949h-13.6l13.6-9.056V207.949z M365.6,42.765l7.32,10.968L141.6,207.949H92.664L365.6,42.765z M88,295.949h160v16H88
	V295.949z M104,439.949c-22.091,0-40-17.909-40-40s17.909-40,40-40s40,17.909,40,40C143.974,422.03,126.08,439.923,104,439.949z
	 M149.888,367.949c-17.604-25.343-52.419-31.617-77.762-14.014c-5.469,3.799-10.215,8.545-14.014,14.014H16v-40h352
	c19.31,0.02,36.733,11.593,44.24,29.384c-23.439-20.028-58.677-17.263-78.705,6.177c-1.215,1.421-2.357,2.903-3.423,4.439H149.888z
	 M376,439.949c-22.091,0-40-17.909-40-40s17.909-40,40-40c22.091,0,40,17.909,40,40C415.974,422.03,398.08,439.923,376,439.949z
	 M431.504,367.949c-0.128-1.016-0.344-2-0.52-3c-0.136-0.8-0.24-1.6-0.4-2.328c-0.288-1.352-0.656-2.68-1.032-4
	c-0.176-0.632-0.312-1.28-0.512-1.896c-0.608-1.912-1.288-3.792-2.064-5.6c-0.056-0.136-0.128-0.264-0.184-0.4
	c-0.736-1.712-1.536-3.384-2.4-5.016c-0.344-0.64-0.744-1.24-1.104-1.864c-0.632-1.088-1.264-2.184-1.968-3.2
	c-0.456-0.688-0.968-1.344-1.448-2.016c-0.672-0.928-1.344-1.864-2.064-2.752c-0.552-0.68-1.136-1.32-1.704-1.976
	c-0.728-0.8-1.456-1.656-2.224-2.448c-0.624-0.64-1.272-1.248-1.912-1.864c-0.8-0.744-1.6-1.48-2.4-2.184
	c-0.688-0.584-1.384-1.144-2.096-1.704c-0.848-0.664-1.712-1.32-2.592-1.944c-0.736-0.533-1.483-1.037-2.24-1.512
	c-0.912-0.592-1.848-1.152-2.792-1.696c-0.8-0.448-1.6-0.888-2.4-1.312c-0.976-0.512-1.984-0.984-2.992-1.44
	c-0.8-0.368-1.6-0.744-2.4-1.08c-1.064-0.432-2.144-0.8-3.2-1.184c-0.8-0.28-1.6-0.576-2.456-0.8
	c-1.16-0.352-2.344-0.624-3.536-0.912c-0.8-0.192-1.6-0.408-2.4-0.568c-1.336-0.264-2.696-0.44-4.056-0.624
	c-0.688-0.088-1.368-0.224-2.064-0.288c-2.072-0.2-4.168-0.32-6.296-0.32H336V199.949h16v88c0,4.418,3.582,8,8,8h104v72H431.504z"/>
<g>
</g>
<g>
</g>
<g>
</g>
<g>
</g>
<g>
</g>
<g>
</g>
<g>
</g>
<g>
</g>
<g>
</g>
<g>
</g>
<g>
</g>
<g>
</g>
<g>
</g>
<g>
</g>
<g>
</g>
</svg>
