<?xml version="1.0" encoding="iso-8859-1"?>
<!-- Generator: Adobe Illustrator 19.0.0, SVG Export Plug-In . SVG Version: 6.00 Build 0)  -->
<svg version="1.1" id="Capa_1" xmlns="http://www.w3.org/2000/svg" xmlns:xlink="http://www.w3.org/1999/xlink" x="0px" y="0px"
	 viewBox="0 0 480 480" style="enable-background:new 0 0 480 480;" xml:space="preserve">
<path style="fill:#FDB62F;" d="M8,88.008v208h320v-184l-24-24H8z"/>
<g>
	<path style="fill:#763A02;" d="M328,344.008c0-26.51,21.49-48,48-48s48,21.49,48,48h32v-176H328V344.008z"/>
	<path style="fill:#763A02;" d="M8,296.008v48h80c0-26.51,21.49-48,48-48s48,21.49,48,48h144v-48H8z"/>
</g>
<g>
	<path style="fill:#FF8800;" d="M408,312.008h64v32h-64V312.008z"/>
	<path style="fill:#FF8800;" d="M328,136.008h144v32H328V136.008z"/>
</g>
<path style="fill:#808080;" d="M136,296.008L136,296.008c26.51,0,48,21.49,48,48l0,0c0,26.51-21.49,48-48,48l0,0
	c-26.51,0-48-21.49-48-48l0,0C88,317.498,109.49,296.008,136,296.008z"/>
<path style="fill:#6CBBC7;" d="M360,168.008v64l96,24v-88H360z"/>
<path style="fill:#E6E6E6;" d="M136,328.008L136,328.008c8.837,0,16,7.163,16,16l0,0c0,8.837-7.163,16-16,16l0,0
	c-8.837,0-16-7.163-16-16l0,0C120,335.171,127.163,328.008,136,328.008z"/>
<path style="fill:#FDB62F;" d="M32,256.008h32v16H32V256.008z"/>
<path style="fill:#808080;" d="M376,296.008L376,296.008c26.51,0,48,21.49,48,48l0,0c0,26.51-21.49,48-48,48l0,0
	c-26.51,0-48-21.49-48-48l0,0C328,317.498,349.49,296.008,376,296.008z"/>
<path style="fill:#E6E6E6;" d="M376,328.008L376,328.008c8.837,0,16,7.163,16,16l0,0c0,8.837-7.163,16-16,16l0,0
	c-8.837,0-16-7.163-16-16l0,0C360,335.171,367.163,328.008,376,328.008z"/>
<path d="M136,320.008c-13.255,0-24,10.745-24,24s10.745,24,24,24s24-10.745,24-24S149.255,320.008,136,320.008z M136,352.008
	c-4.418,0-8-3.582-8-8s3.582-8,8-8s8,3.582,8,8S140.418,352.008,136,352.008z"/>
<path d="M376,320.008c-13.255,0-24,10.745-24,24s10.745,24,24,24s24-10.745,24-24S389.255,320.008,376,320.008z M376,352.008
	c-4.418,0-8-3.582-8-8s3.582-8,8-8s8,3.582,8,8S380.418,352.008,376,352.008z"/>
<path d="M352,256.008h16v16h-16V256.008z"/>
<path d="M32,256.008h32v16H32V256.008z"/>
<path d="M464,176.008h16v-48H336v-16c0-2.122-0.844-4.156-2.344-5.656l-24-24c-1.5-1.5-3.534-2.344-5.656-2.344H8
	c-4.418,0-8,3.582-8,8v256c0,4.418,3.582,8,8,8h72.64c4.391,30.574,32.736,51.8,63.311,47.409
	c24.574-3.529,43.88-22.835,47.409-47.409h129.28c4.391,30.574,32.736,51.8,63.311,47.409c24.574-3.529,43.88-22.835,47.409-47.409
	H480v-48h-16V176.008z M415.144,304.008c-0.184-0.184-0.4-0.328-0.584-0.512c-1.291-1.227-2.624-2.392-4-3.496
	c-0.52-0.408-1.056-0.8-1.6-1.192c-1.28-0.933-2.597-1.811-3.952-2.632c-0.52-0.312-1.024-0.648-1.552-0.944
	c-1.871-1.068-3.802-2.027-5.784-2.872c-0.208-0.088-0.424-0.144-0.632-0.232c-1.811-0.732-3.658-1.367-5.536-1.904
	c-0.648-0.184-1.296-0.336-1.952-0.504c-1.563-0.389-3.163-0.709-4.8-0.96c-0.656-0.104-1.312-0.224-1.976-0.304
	c-4.16-0.547-8.371-0.601-12.544-0.16c-0.568,0.056-1.12,0.184-1.68,0.256c-1.312,0.176-2.624,0.344-3.912,0.608
	c-0.688,0.144-1.352,0.36-2.04,0.528c-1.128,0.28-2.256,0.536-3.352,0.88c-0.736,0.232-1.44,0.536-2.168,0.8
	c-1.008,0.36-2.024,0.704-3.008,1.12c-0.728,0.312-1.424,0.688-2.144,1.032c-0.928,0.448-1.88,0.864-2.776,1.36
	c-0.712,0.392-1.384,0.84-2.072,1.264c-0.856,0.52-1.736,1.016-2.56,1.6c-0.696,0.472-1.344,1.008-2.016,1.512
	s-1.56,1.136-2.296,1.752s-1.296,1.176-1.936,1.76s-1.392,1.232-2.04,1.896L336,304.848v-128.84h16v56
	c0,3.669,2.497,6.868,6.056,7.76L448,262.256v41.752L415.144,304.008z M191.2,335.12c-0.418-2.708-1.036-5.382-1.848-8
	c-0.072-0.216-0.16-0.416-0.232-0.632c-0.822-2.467-1.817-4.873-2.976-7.2c-0.192-0.392-0.368-0.8-0.568-1.176
	c-1.221-2.315-2.603-4.542-4.136-6.664c-0.312-0.44-0.64-0.864-0.968-1.296c-1.589-2.106-3.324-4.097-5.192-5.96
	c-0.056-0.056-0.096-0.12-0.152-0.168H320v32H191.432C191.384,335.704,191.272,335.424,191.2,335.12L191.2,335.12z M448,245.76
	l-80-20v-49.752h80V245.76z M464,144.008v16H336v-16H464z M16,96.008h284.688L320,115.32v172.688H16V96.008z M16,304.008h80.84
	c-0.056,0.056-0.096,0.12-0.144,0.168c-1.868,1.865-3.603,3.86-5.192,5.968c-0.328,0.424-0.648,0.848-0.96,1.288
	c-1.536,2.124-2.921,4.354-4.144,6.672c-0.2,0.384-0.376,0.8-0.568,1.176c-1.162,2.327-2.159,4.733-2.984,7.2
	c-0.072,0.208-0.16,0.408-0.224,0.616c-0.812,2.618-1.43,5.291-1.848,8c-0.048,0.304-0.16,0.584-0.208,0.888H16V304.008z
	 M136,384.008c-22.091,0-40-17.909-40-40s17.909-40,40-40s40,17.909,40,40C175.974,366.088,158.08,383.981,136,384.008z
	 M376,384.008c-22.091,0-40-17.909-40-40s17.909-40,40-40s40,17.909,40,40C415.974,366.088,398.08,383.981,376,384.008z
	 M464,336.008h-32.64c-0.192-1.32-0.384-2.632-0.672-3.92c-0.168-0.76-0.384-1.488-0.576-2.232
	c-0.304-1.144-0.608-2.288-0.984-3.408c-0.256-0.8-0.552-1.528-0.8-2.288c-0.4-1.048-0.8-2.088-1.28-3.112
	c-0.152-0.336-0.264-0.696-0.424-1.032H464V336.008z"/>
<g>
</g>
<g>
</g>
<g>
</g>
<g>
</g>
<g>
</g>
<g>
</g>
<g>
</g>
<g>
</g>
<g>
</g>
<g>
</g>
<g>
</g>
<g>
</g>
<g>
</g>
<g>
</g>
<g>
</g>
</svg>
